<?xml version="1.0" encoding="utf-8"?>
<!-- Generator: Adobe Illustrator 28.2.0, SVG Export Plug-In . SVG Version: 6.00 Build 0)  -->
<svg version="1.1" id="Camada_1" xmlns="http://www.w3.org/2000/svg" xmlns:xlink="http://www.w3.org/1999/xlink" x="0px" y="0px"
	 viewBox="0 0 50 37" style="enable-background:new 0 0 50 37;" xml:space="preserve">
<style type="text/css">
	.st0{fill:#FFFFFF;}
</style>
<path class="st0" d="M49.8,16.3l-8.3-8.3c-0.3-0.3-0.8-0.3-1.1,0l-0.7,0.7c-0.1,0.1-0.1,0.2-0.2,0.3c0,0.1-0.1,0.2-0.1,0.3
	c0,0.1,0,0.2,0.1,0.3c0,0.1,0.1,0.2,0.2,0.3l8.3,8.3c0.3,0.3,0.8,0.3,1.1,0l0.7-0.7C50.1,17.1,50.1,16.6,49.8,16.3z M28.4,21.2
	C28.2,21.1,28,21,27.8,21s-0.4,0.1-0.6,0.2L26.5,22c-0.3,0.3-0.3,0.8,0,1.1l8.3,8.3c0.1,0.1,0.2,0.1,0.3,0.2c0.1,0,0.2,0.1,0.3,0.1
	c0.1,0,0.2,0,0.3-0.1c0.1,0,0.2-0.1,0.3-0.2l0.7-0.7c0.1-0.1,0.1-0.2,0.2-0.3c0-0.1,0.1-0.2,0.1-0.3c0-0.1,0-0.2-0.1-0.3
	s-0.1-0.2-0.2-0.3L28.4,21.2z M15.2,8.1c-0.1-0.1-0.4-0.2-0.6-0.2s-0.4,0.1-0.6,0.2l-0.7,0.7c-0.3,0.3-0.3,0.8,0,1.1l8.3,8.3
	c0.1,0.1,0.2,0.1,0.3,0.2c0.1,0,0.2,0.1,0.3,0.1s0.2,0,0.3-0.1c0.1,0,0.2-0.1,0.3-0.2l0.7-0.7c0.1-0.1,0.1-0.2,0.2-0.3
	c0-0.1,0.1-0.2,0.1-0.3s0-0.2-0.1-0.3c0-0.1-0.1-0.2-0.2-0.3L15.2,8.1z M22.7,21.2c-0.3-0.3-0.8-0.3-1.1,0l-8.3,8.3
	c-0.1,0.1-0.2,0.4-0.2,0.6s0.1,0.4,0.2,0.6l0.7,0.7c0.1,0.1,0.2,0.1,0.3,0.2c0.1,0,0.2,0.1,0.3,0.1c0.1,0,0.2,0,0.3-0.1
	c0.1,0,0.2-0.1,0.3-0.2l8.3-8.3c0.3-0.3,0.3-0.8,0-1.1L22.7,21.2z M27.2,18.2c0.3,0.3,0.8,0.3,1.1,0l8.3-8.3c0.3-0.3,0.3-0.8,0-1.1
	l-0.7-0.7c-0.1-0.1-0.2-0.1-0.3-0.2c-0.1,0-0.2-0.1-0.3-0.1c-0.1,0-0.2,0-0.3,0.1c-0.1,0-0.2,0.1-0.3,0.2l-8.3,8.3
	c-0.1,0.1-0.2,0.4-0.2,0.6s0.1,0.4,0.2,0.6L27.2,18.2z M9.6,8.1C9.5,7.9,9.3,7.8,9.1,7.8c-0.2,0-0.4,0.1-0.6,0.2l-8.3,8.3
	C0.1,16.5,0,16.7,0,16.9c0,0.2,0.1,0.4,0.2,0.6L1,18.2c0.1,0.1,0.2,0.1,0.3,0.2c0.1,0,0.2,0.1,0.3,0.1c0.1,0,0.2,0,0.3-0.1
	c0.1,0,0.2-0.1,0.3-0.2l8.3-8.3c0.1-0.1,0.1-0.2,0.2-0.3s0.1-0.2,0.1-0.3c0-0.1,0-0.2-0.1-0.3c0-0.1-0.1-0.2-0.2-0.3L9.6,8.1z"/>
</svg>
